<svg width="600" height="599" version="1.1" xmlns="http://www.w3.org/2000/svg" desc="Created with imagetracer.js version 1.2.6" ><path fill="rgb(0,0,0)" stroke="rgb(0,0,0)" stroke-width="1" opacity="0" d="M 0 0 L 600 0 L 600 599 L 0 599 L 0 0 Z M 287 91 L 278 93 L 263 102 L 252 114 L 241 132 L 224 166 L 189 244 L 166 298 L 143 357 L 132 390 L 125 423 L 125 448 L 127 458 Q 132 473 141 485 Q 150 495 164 502 L 185 509 L 199 510 L 200 511 L 224 511 L 225 510 L 235 510 L 244 508 L 251 508 L 321 494 L 326 494 L 362 486 L 367 486 L 383 482 L 438 473 L 474 464 L 492 454 Q 499 449 502 440 Q 503 430 500 426 Q 496 419 488 416 L 474 413 L 442 413 L 441 414 L 421 415 L 414 417 L 407 417 L 370 424 L 365 424 L 321 433 L 303 435 L 296 437 L 287 437 L 286 438 L 268 438 L 267 437 L 255 436 Q 242 433 235 426 L 228 419 L 224 411 L 222 402 L 222 391 L 225 374 L 237 338 L 260 284 L 312 177 L 322 150 L 325 137 Q 328 112 316 102 L 306 94 L 294 91 L 287 91 Z M 331 308 L 320 312 Q 315 315 313 322 Q 311 333 316 339 Q 320 344 328 346 Q 337 347 342 343 Q 348 339 350 331 Q 351 321 347 317 L 342 311 L 338 309 L 331 308 Z M 402 308 L 391 312 Q 386 316 384 323 Q 382 335 388 340 L 399 346 Q 409 347 414 342 Q 419 338 421 330 L 421 325 L 418 317 L 413 311 L 402 308 Z M 473 308 L 463 311 L 457 317 L 454 326 Q 454 334 458 339 Q 462 344 470 346 Q 480 347 485 342 L 490 336 L 492 329 Q 492 321 489 317 Q 484 309 473 308 Z " /><path fill="rgb(142,187,254)" stroke="rgb(142,187,254)" stroke-width="1" opacity="0.996078431372549" d="M 286.5 92 L 299.5 93 L 305.5 95 L 318 105.5 Q 322.5 111.5 324 120.5 L 324 135.5 L 321 149.5 L 311 176.5 L 280 238.5 L 254 294.5 L 247 312.5 L 243 318.5 L 242 324.5 L 237 334.5 L 228 359.5 L 220.5 391 L 219 390.5 L 219 392 L 221 392.5 L 221 403.5 L 222 406.5 L 221.5 408 L 223 408 L 223 412 L 221 412.5 L 225 414 L 227 422.5 L 227 430 L 230 430.5 L 229.5 432 L 231.5 433 L 233.5 432 L 233.5 433 L 228 434.5 L 232 435 L 233 437.5 Q 231.7 440.3 230.5 438 L 227.5 436 Q 224.5 437.5 227.5 439 L 229 439.5 L 225 441 L 226 438.5 L 224 437.5 L 225 435 Q 221.7 433.7 223 438.5 Q 220.5 440 224 441.5 L 223.5 443 L 223 441 L 220.5 442 L 220 440.5 Q 222.3 439.3 219.5 438 L 218 441 L 216 441.5 L 223 444.5 L 217.5 447 L 218 445.5 Q 218.7 442.9 216 444 Q 217.1 447.3 213 446 L 212.5 444 L 212 446.5 L 214.5 448 L 216 447.5 L 215 450 L 213 450.5 Q 216.8 452.3 213.5 454 Q 211.2 448.8 209 452.5 L 210 457.5 L 208.5 459 L 206 458.5 Q 205.2 455.5 209 457 L 209 455 Q 205.2 456.5 206 453.5 L 205 453.5 L 202 459.5 L 203 461.5 L 202 464 L 204 464.5 L 198.5 467 L 197 466.5 L 195.5 469 L 192.5 467 L 191 468.5 L 192.5 471 L 187 467 L 186.5 469 L 186 467 Q 183.3 465.9 184 468.5 L 183.5 470 Q 187.3 468.8 186 472.5 Q 184.8 475.3 183.5 473 Q 179.8 472 181 475 L 183 475.5 Q 181.8 478 178 477 L 177 479.5 L 177.5 481 Q 174.2 479.9 175 482.5 Q 173.8 485.3 172.5 483 Q 170.3 483.8 171 481.5 L 169.5 482 L 168 481.5 L 168.5 480 Q 165.9 479.2 167 482.5 L 167 484.5 L 167 486 L 162 486 L 161.5 484 L 156.5 487 L 152.5 484 L 149.5 486 L 147.5 481 Q 143.8 482 145 479 L 148 478.5 L 145.5 477 Q 144.3 479.2 139.5 478 Q 136.5 476.4 138 471 L 135.5 470 Q 134.3 472.3 133 469.5 L 129 456.5 L 129.5 455 Q 127.3 455.8 128 453.5 L 126 446.5 L 126 422.5 L 133 389.5 L 144 356.5 L 183 259.5 L 233 148.5 L 249 119.5 L 260.5 105 Q 270.2 95.2 286.5 92 Z M 226 431 L 227 433 Q 228 430 226 431 Z M 215 439 L 213 441 Q 211 445 215 444 L 214 443 L 215 441 L 215 439 Z M 206 447 Q 204 450 207 449 L 206 447 Z M 209 447 Q 207 450 210 449 L 209 447 Z M 200 453 L 199 455 L 198 457 L 200 456 L 200 453 Z M 199 460 L 199 463 L 201 464 Q 202 459 199 460 Z M 182 463 L 183 465 Q 184 462 182 463 Z M 191 463 L 189 466 L 192 466 L 191 463 Z M 194 463 L 192 465 L 194 465 L 194 463 Z M 198 463 L 197 465 L 200 465 L 198 463 Z M 177 466 L 175 468 Q 174 471 177 470 L 178 472 L 180 471 Q 181 468 177 469 L 177 466 Z M 176 474 L 177 477 Q 179 478 178 475 L 176 474 Z M 171 477 L 168 479 Q 170 482 172 478 L 171 477 Z M 150 479 L 149 482 L 151 482 L 150 479 Z M 162 482 L 162 484 L 164 483 L 162 482 Z " /><path fill="rgb(142,187,254)" stroke="rgb(142,187,254)" stroke-width="1" opacity="0.996078431372549" d="M 316.5 318 L 316 319.5 L 315.5 321 L 315 319.5 L 316.5 318 Z " /><path fill="rgb(142,187,254)" stroke="rgb(142,187,254)" stroke-width="1" opacity="0.996078431372549" d="M 230.5 427 L 229.5 429 L 230.5 427 Z " /><path fill="rgb(142,187,254)" stroke="rgb(142,187,254)" stroke-width="1" opacity="0.996078431372549" d="M 229.5 441 L 232 441.5 L 230.5 444 L 229.5 442 L 228 442.5 L 229.5 441 Z " /><path fill="rgb(142,187,254)" stroke="rgb(142,187,254)" stroke-width="1" opacity="0.996078431372549" d="M 223.5 446 L 224 448 L 222 447.5 L 223.5 446 Z " /><path fill="rgb(142,187,254)" stroke="rgb(142,187,254)" stroke-width="1" opacity="0.996078431372549" d="M 221.5 452 L 220.5 454 L 219 453.5 L 221.5 452 Z " /><path fill="rgb(142,187,254)" stroke="rgb(142,187,254)" stroke-width="1" opacity="0.996078431372549" d="M 145.5 482 L 148 483 Q 149 486 146 485 L 145.5 482 Z " /><path fill="rgb(142,187,254)" stroke="rgb(142,187,254)" stroke-width="1" opacity="0.996078431372549" d="M 169.5 484 L 170.5 486 L 169.5 484 Z " /><path fill="rgb(142,187,254)" stroke="rgb(142,187,254)" stroke-width="1" opacity="0.996078431372549" d="M 154 488 Q 157.8 487 159 489.5 Q 157.3 487.9 155.5 491 L 154 489.5 L 154 488 Z " /><path fill="rgb(149,167,253)" stroke="rgb(149,167,253)" stroke-width="1" opacity="0.9921568627450981" d="M 327.5 309 Q 341.2 308.3 346 316.5 Q 350.1 321 349 330.5 Q 346.9 337.9 341.5 342 L 333.5 345 L 328.5 345 L 324.5 344 L 317 338.5 Q 312.5 334 313 324.5 L 314.5 320 L 316 320.5 L 315 318.5 L 319.5 313 L 322.5 311 L 324.5 312 L 324.5 310 L 327.5 309 Z " /><path fill="rgb(149,167,253)" stroke="rgb(149,167,253)" stroke-width="1" opacity="0.9921568627450981" d="M 399.5 309 Q 411.5 308.5 416 315.5 Q 419.8 320.2 420 328.5 L 415 340 L 407.5 344 L 399.5 345 Q 391.2 342.9 387 336.5 Q 383.2 331.8 385 321.5 L 389.5 314 L 399.5 309 Z " /><path fill="rgb(149,167,253)" stroke="rgb(149,167,253)" stroke-width="1" opacity="0.9921568627450981" d="M 470.5 309 Q 482.5 308.5 487 315.5 Q 491.8 320.7 490 332.5 L 482.5 342 L 475.5 345 L 471.5 345 Q 463.2 343.8 459 338.5 Q 454.3 333.7 455 323.5 Q 456.9 315.8 462.5 312 L 470.5 309 Z " /><path fill="rgb(149,167,253)" stroke="rgb(149,167,253)" stroke-width="1" opacity="0.9921568627450981" d="M 219.5 390 L 220.5 392 Q 217.7 392.7 219.5 390 Z " /><path fill="rgb(149,167,253)" stroke="rgb(149,167,253)" stroke-width="1" opacity="0.9921568627450981" d="M 223.5 411 L 224 414 L 221 412.5 L 223.5 411 Z " /><path fill="rgb(149,167,253)" stroke="rgb(149,167,253)" stroke-width="1" opacity="0.9921568627450981" d="M 455.5 413 L 466.5 413 L 467.5 414 L 481.5 415 Q 492 417.5 498 424.5 Q 501.9 428.6 501 437.5 Q 498.2 449.7 488.5 455 L 469.5 464 L 446.5 470 L 428.5 472 L 424.5 474 L 413.5 475 L 402.5 478 L 396.5 478 L 386.5 481 L 381.5 481 L 365.5 485 L 360.5 485 L 324.5 493 L 319.5 493 L 249.5 507 L 242.5 507 L 233.5 509 L 223.5 509 L 222.5 510 L 201.5 510 L 200.5 509 L 191.5 509 L 180.5 507 L 168.5 503 Q 154 497 144 486.5 L 140 481.5 L 142 480.5 L 137 477.5 L 135 474.5 L 135.5 473 Q 133.3 473.8 134 471.5 L 133.5 470 L 136.5 471 Q 139.3 470.4 138 476.5 Q 139.3 479.3 144.5 478 L 146.5 478 L 148 478.5 L 145 479 Q 143.8 482 147.5 481 L 149 481.5 L 149.5 479 L 151 481.5 L 149 482 L 149.5 486 L 152.5 484 L 157.5 487 L 162 483.5 Q 161.3 481.3 163.5 482 L 162 484.5 L 162 486 L 167 486 L 168 483.5 L 167 480 L 169 479.5 L 168.5 478 L 171.5 477 L 168.5 482 L 170.5 481 L 171 483 L 173.5 484 L 175 481 L 173 480.5 L 174.5 480 L 177.5 481 L 178 478.5 Q 178.8 476.3 176.5 477 L 174.5 478 L 174.5 477 L 176 476.5 L 175 474.5 L 176.5 475 Q 179.1 474.3 178 477 L 181.5 477 L 182.5 475 Q 179.9 475.7 181 473 L 184.5 472 L 186 472.5 Q 187.3 468.8 183.5 470 L 184 468.5 Q 183.3 465.9 186 467 L 186.5 469 L 187 467 L 190.5 469 L 193.5 467 Q 195.3 470.8 197 467.5 L 197.5 466 L 199.5 466 L 204 464.5 L 202 464 L 203 460.5 L 203 458.5 L 205.5 453 L 206 455 Q 210.1 456.7 209 452.5 L 208.5 451 L 210.5 451 L 213.5 454 L 215 452.5 L 213.5 450 Q 216.1 450.7 215 448 L 212 446.5 L 213 440.5 L 214.5 439 L 215 440.5 L 214 442.5 L 214.5 444 Q 211.9 443.3 213 446 L 216 446 Q 215 443 218 444 L 217 446.5 L 218.5 447 L 223 444.5 L 216 441.5 L 218 441 L 219.5 438 Q 222.3 439.3 220 440.5 L 220.5 442 L 223 440.5 L 223 438.5 Q 221.7 433.7 225 435 L 224 437.5 L 225.5 438 Q 227.5 434 229.5 438 L 231.5 439 Q 234.3 437.8 232 436.5 Q 232.9 433.5 228.5 435 L 228.5 434 L 232 433.5 L 229 431.5 L 229.5 430 L 227 429.5 L 227 422.5 L 226 417.5 L 227 417.5 L 228 420.5 L 235.5 428 L 251.5 436 L 260.5 438 L 270.5 438 L 271.5 439 L 276.5 438 L 279.5 439 L 280.5 438 L 293.5 438 L 300.5 436 L 306.5 436 L 411.5 417 L 435.5 415 L 436.5 414 L 454.5 414 L 455.5 413 Z M 226 439 Q 224 442 227 441 L 226 439 Z M 232 441 L 230 444 L 232 443 L 232 441 Z M 224 446 L 222 448 L 224 448 L 224 446 Z M 210 455 L 209 457 Q 205 455 206 459 L 209 459 L 210 458 L 210 455 Z M 146 483 Q 145 486 148 485 Q 149 482 146 483 Z M 154 488 L 154 490 Q 156 493 158 489 L 154 488 Z " /><path fill="rgb(149,167,253)" stroke="rgb(149,167,253)" stroke-width="1" opacity="0.9921568627450981" d="M 218.5 430 L 217.5 432 L 218.5 430 Z " /><path fill="rgb(149,167,253)" stroke="rgb(149,167,253)" stroke-width="1" opacity="0.9921568627450981" d="M 225.5 431 Q 227.8 430.3 227 432.5 L 224 432.5 L 225.5 431 Z " /><path fill="rgb(149,167,253)" stroke="rgb(149,167,253)" stroke-width="1" opacity="0.9921568627450981" d="M 206.5 439 L 207.5 441 L 206.5 439 Z " /><path fill="rgb(149,167,253)" stroke="rgb(149,167,253)" stroke-width="1" opacity="0.9921568627450981" d="M 205.5 447 L 206.5 449 Q 203.7 449.7 205.5 447 Z " /><path fill="rgb(149,167,253)" stroke="rgb(149,167,253)" stroke-width="1" opacity="0.9921568627450981" d="M 208.5 447 L 209.5 449 Q 206.7 449.7 208.5 447 Z " /><path fill="rgb(149,167,253)" stroke="rgb(149,167,253)" stroke-width="1" opacity="0.9921568627450981" d="M 199.5 453 L 200 455.5 L 197.5 457 L 199 454.5 L 199.5 453 Z " /><path fill="rgb(149,167,253)" stroke="rgb(149,167,253)" stroke-width="1" opacity="0.9921568627450981" d="M 128 455 L 130 455.5 L 128.5 458 L 128 455 Z " /><path fill="rgb(149,167,253)" stroke="rgb(149,167,253)" stroke-width="1" opacity="0.9921568627450981" d="M 201.5 456 L 202 457.5 L 200 458.5 L 201.5 456 Z " /><path fill="rgb(149,167,253)" stroke="rgb(149,167,253)" stroke-width="1" opacity="0.9921568627450981" d="M 199 460 Q 202.3 458.7 201 463.5 L 197 465 L 197.5 463 L 199.5 464 L 199 462.5 L 199 460 Z " /><path fill="rgb(149,167,253)" stroke="rgb(149,167,253)" stroke-width="1" opacity="0.9921568627450981" d="M 181.5 463 Q 183.8 462.3 183 464.5 L 181.5 463 Z " /><path fill="rgb(149,167,253)" stroke="rgb(149,167,253)" stroke-width="1" opacity="0.9921568627450981" d="M 190.5 463 L 191.5 465 L 194 463.5 Q 194.8 465.8 192.5 465 L 189 466 L 190.5 463 Z " /><path fill="rgb(149,167,253)" stroke="rgb(149,167,253)" stroke-width="1" opacity="0.9921568627450981" d="M 176.5 466 L 177 469 Q 181.1 467.7 180 471 L 177.5 472 L 177 470 Q 174 471.3 175 467.5 L 176.5 466 Z " /><path fill="rgb(149,167,253)" stroke="rgb(149,167,253)" stroke-width="1" opacity="0.9921568627450981" d="M 158.5 470 L 160 472.5 L 159 472.5 L 158.5 470 Z " /><path fill="rgb(149,167,253)" stroke="rgb(149,167,253)" stroke-width="1" opacity="0.9921568627450981" d="M 178.5 473 L 179.5 475 L 178.5 473 Z " /><path fill="rgb(144,146,237)" stroke="rgb(144,146,237)" stroke-width="1" opacity="0.9333333333333333" d="M 286.5 91 L 293.5 91 L 305.5 94 L 316 101.5 Q 327.5 112 325 136.5 L 322 149.5 L 312 176.5 L 260 283.5 L 237 337.5 L 225 373.5 L 222 390.5 L 222 401.5 L 224 410.5 L 228 418.5 L 234.5 426 L 247 433.5 L 245.5 434 Q 234.8 429.2 228 420.5 L 222 407.5 L 221 390.5 L 228 359.5 L 244 317.5 L 271 257.5 L 306 187.5 L 316 164.5 L 323 141.5 L 324 120.5 Q 321.3 105.2 310.5 98 L 299.5 93 L 286.5 92 L 281.5 93 L 281.5 92 L 286.5 91 Z " /><path fill="rgb(144,146,237)" stroke="rgb(144,146,237)" stroke-width="1" opacity="0.9333333333333333" d="M 277.5 93 L 280 93.5 Q 265.7 98.2 257 108.5 Q 243.4 126.4 233.5 148 L 234 146.5 L 248 119.5 L 262.5 102 L 277.5 93 Z " /><path fill="rgb(144,146,237)" stroke="rgb(144,146,237)" stroke-width="1" opacity="0.9333333333333333" d="M 232.5 149 L 233 150.5 L 218.5 180 L 218 178.5 L 232.5 149 Z " /><path fill="rgb(144,146,237)" stroke="rgb(144,146,237)" stroke-width="1" opacity="0.9333333333333333" d="M 217.5 181 L 218 182.5 L 213.5 191 L 213 189.5 L 217.5 181 Z " /><path fill="rgb(144,146,237)" stroke="rgb(144,146,237)" stroke-width="1" opacity="0.9333333333333333" d="M 212.5 192 L 213 193.5 L 186.5 252 L 186 250.5 L 212.5 192 Z " /><path fill="rgb(144,146,237)" stroke="rgb(144,146,237)" stroke-width="1" opacity="0.9333333333333333" d="M 185.5 253 L 186 254.5 L 183.5 259 L 183 257.5 L 185.5 253 Z " /><path fill="rgb(144,146,237)" stroke="rgb(144,146,237)" stroke-width="1" opacity="0.9333333333333333" d="M 182.5 260 L 183 261.5 L 151 337.5 L 133 389.5 L 126 422.5 L 125.5 448 L 125 422.5 L 132 389.5 L 143 356.5 L 166 297.5 L 182.5 260 Z " /><path fill="rgb(144,146,237)" stroke="rgb(144,146,237)" stroke-width="1" opacity="0.9333333333333333" d="M 472.5 308 L 475 308.5 L 472.5 309 L 472.5 308 Z " /><path fill="rgb(144,146,237)" stroke="rgb(144,146,237)" stroke-width="1" opacity="0.9333333333333333" d="M 334.5 309 Q 343.5 310 347 316.5 Q 351.3 320.7 350 330.5 Q 347.9 338.9 341.5 343 Q 337.1 347.1 327.5 346 Q 319.9 344.1 316 338.5 L 314 334.5 L 315 334.5 L 319.5 341 L 324.5 344 L 333.5 345 Q 341.3 343.8 345 338.5 Q 350.2 334.2 349 323.5 Q 347.2 315.8 341.5 312 L 334.5 310 L 334.5 309 Z " /><path fill="rgb(144,146,237)" stroke="rgb(144,146,237)" stroke-width="1" opacity="0.9333333333333333" d="M 396.5 309 L 399 309.5 L 396.5 310 L 396.5 309 Z " /><path fill="rgb(144,146,237)" stroke="rgb(144,146,237)" stroke-width="1" opacity="0.9333333333333333" d="M 405.5 309 L 408 309.5 L 405.5 310 L 405.5 309 Z " /><path fill="rgb(144,146,237)" stroke="rgb(144,146,237)" stroke-width="1" opacity="0.9333333333333333" d="M 466.5 309 L 470 309.5 Q 461.6 310.6 458 316.5 L 456.5 320 L 456 318.5 L 462.5 311 L 466.5 309 Z " /><path fill="rgb(144,146,237)" stroke="rgb(144,146,237)" stroke-width="1" opacity="0.9333333333333333" d="M 476.5 309 Q 485.5 310 489 316.5 Q 492.2 320.8 492 328.5 L 490 335.5 L 484.5 342 Q 480.2 347.2 469.5 346 Q 461.9 344.1 458 338.5 L 456 334.5 L 457 334.5 L 461.5 341 Q 466.5 345 475.5 345 Q 483.9 342.9 488 336.5 Q 491.8 331.8 490 321.5 L 484.5 313 Q 482.6 309.4 476.5 310 L 476.5 309 Z " /><path fill="rgb(144,146,237)" stroke="rgb(144,146,237)" stroke-width="1" opacity="0.9333333333333333" d="M 322.5 310 L 324 310.5 L 317 315.5 L 314.5 320 L 314 318.5 L 319.5 312 L 322.5 310 Z " /><path fill="rgb(144,146,237)" stroke="rgb(144,146,237)" stroke-width="1" opacity="0.9333333333333333" d="M 393.5 310 L 395 310.5 L 388 315.5 L 386.5 318 L 387 316.5 L 390.5 312 L 393.5 310 Z " /><path fill="rgb(144,146,237)" stroke="rgb(144,146,237)" stroke-width="1" opacity="0.9333333333333333" d="M 409.5 310 Q 415.6 311.4 418 316.5 L 421 324.5 L 421 329.5 Q 419.3 337.8 413.5 342 Q 409.2 347.2 398.5 346 L 388 339.5 L 385 333.5 L 386 333.5 Q 387.4 339.6 392.5 342 Q 396 345.5 403.5 345 L 415 340 L 419 332.5 L 420 325.5 L 418 318.5 L 412.5 312 Q 408.7 311.7 409.5 310 Z " /><path fill="rgb(144,146,237)" stroke="rgb(144,146,237)" stroke-width="1" opacity="0.9333333333333333" d="M 313.5 321 L 314 323.5 L 313 323.5 L 313.5 321 Z " /><path fill="rgb(144,146,237)" stroke="rgb(144,146,237)" stroke-width="1" opacity="0.9333333333333333" d="M 384.5 322 L 385 331.5 L 384 331.5 L 384.5 322 Z " /><path fill="rgb(144,146,237)" stroke="rgb(144,146,237)" stroke-width="1" opacity="0.9333333333333333" d="M 454.5 325 L 455 328.5 L 454 328.5 L 454.5 325 Z " /><path fill="rgb(144,146,237)" stroke="rgb(144,146,237)" stroke-width="1" opacity="0.9333333333333333" d="M 313.5 330 L 314 332.5 L 313 332.5 L 313.5 330 Z " /><path fill="rgb(144,146,237)" stroke="rgb(144,146,237)" stroke-width="1" opacity="0.9333333333333333" d="M 455.5 330 L 456 332.5 L 455 332.5 L 455.5 330 Z " /><path fill="rgb(144,146,237)" stroke="rgb(144,146,237)" stroke-width="1" opacity="0.9333333333333333" d="M 441.5 413 L 455 413.5 L 441.5 414 L 441.5 413 Z " /><path fill="rgb(144,146,237)" stroke="rgb(144,146,237)" stroke-width="1" opacity="0.9333333333333333" d="M 467.5 413 L 474 413.5 L 467.5 414 L 467.5 413 Z " /><path fill="rgb(144,146,237)" stroke="rgb(144,146,237)" stroke-width="1" opacity="0.9333333333333333" d="M 429.5 414 L 436 414.5 L 429.5 415 L 429.5 414 Z " /><path fill="rgb(144,146,237)" stroke="rgb(144,146,237)" stroke-width="1" opacity="0.9333333333333333" d="M 476.5 414 L 481 414.5 L 476.5 415 L 476.5 414 Z " /><path fill="rgb(144,146,237)" stroke="rgb(144,146,237)" stroke-width="1" opacity="0.9333333333333333" d="M 420.5 415 L 427 415.5 L 420.5 416 L 420.5 415 Z " /><path fill="rgb(144,146,237)" stroke="rgb(144,146,237)" stroke-width="1" opacity="0.9333333333333333" d="M 482.5 415 Q 494.5 417 500 425.5 Q 503.3 430.2 502 439.5 Q 498.8 448.8 491.5 454 L 473.5 464 L 437.5 473 L 382.5 482 L 366.5 486 L 361.5 486 L 325.5 494 L 320.5 494 L 250.5 508 L 243.5 508 L 234.5 510 L 224.5 510 L 223.5 511 L 199.5 511 L 198.5 510 L 184.5 509 L 163.5 502 Q 150.2 495.3 141 484.5 Q 129.1 471.4 126 449.5 L 127 449.5 L 128 457.5 L 132 468.5 Q 137.6 480.4 146.5 489 Q 159.9 501.6 180.5 507 L 191.5 509 L 200.5 509 L 201.5 510 L 222.5 510 L 223.5 509 L 233.5 509 L 234.5 508 L 249.5 507 L 272.5 502 L 283.5 501 L 360.5 485 L 391.5 480 L 396.5 478 L 408.5 477 L 413.5 475 L 424.5 474 L 428.5 472 L 435.5 472 L 455.5 468 L 469.5 464 L 485.5 457 L 498 445.5 L 501 437.5 L 501 431.5 Q 499.4 424.6 494.5 421 Q 490.2 416.8 482.5 416 L 482.5 415 Z " /><path fill="rgb(144,146,237)" stroke="rgb(144,146,237)" stroke-width="1" opacity="0.9333333333333333" d="M 414.5 416 L 419 416.5 L 414.5 417 L 414.5 416 Z " /><path fill="rgb(144,146,237)" stroke="rgb(144,146,237)" stroke-width="1" opacity="0.9333333333333333" d="M 406.5 417 L 411 417.5 L 406.5 418 L 406.5 417 Z " /><path fill="rgb(144,146,237)" stroke="rgb(144,146,237)" stroke-width="1" opacity="0.9333333333333333" d="M 400.5 418 L 405 418.5 L 400.5 419 L 400.5 418 Z " /><path fill="rgb(144,146,237)" stroke="rgb(144,146,237)" stroke-width="1" opacity="0.9333333333333333" d="M 394.5 419 L 398 419.5 L 394.5 420 L 394.5 419 Z " /><path fill="rgb(144,146,237)" stroke="rgb(144,146,237)" stroke-width="1" opacity="0.9333333333333333" d="M 388.5 420 L 393 420.5 L 388.5 421 L 388.5 420 Z " /><path fill="rgb(144,146,237)" stroke="rgb(144,146,237)" stroke-width="1" opacity="0.9333333333333333" d="M 382.5 421 L 387 421.5 L 382.5 422 L 382.5 421 Z " /><path fill="rgb(144,146,237)" stroke="rgb(144,146,237)" stroke-width="1" opacity="0.9333333333333333" d="M 376.5 422 L 380 422.5 L 376.5 423 L 376.5 422 Z " /><path fill="rgb(144,146,237)" stroke="rgb(144,146,237)" stroke-width="1" opacity="0.9333333333333333" d="M 370.5 423 L 374 423.5 L 370.5 424 L 370.5 423 Z " /><path fill="rgb(144,146,237)" stroke="rgb(144,146,237)" stroke-width="1" opacity="0.9333333333333333" d="M 364.5 424 L 369 424.5 L 364.5 425 L 364.5 424 Z " /><path fill="rgb(144,146,237)" stroke="rgb(144,146,237)" stroke-width="1" opacity="0.9333333333333333" d="M 359.5 425 L 363 425.5 L 359.5 426 L 359.5 425 Z " /><path fill="rgb(144,146,237)" stroke="rgb(144,146,237)" stroke-width="1" opacity="0.9333333333333333" d="M 354.5 426 L 358 426.5 L 354.5 427 L 354.5 426 Z " /><path fill="rgb(144,146,237)" stroke="rgb(144,146,237)" stroke-width="1" opacity="0.9333333333333333" d="M 348.5 427 L 352 427.5 L 348.5 428 L 348.5 427 Z " /><path fill="rgb(144,146,237)" stroke="rgb(144,146,237)" stroke-width="1" opacity="0.9333333333333333" d="M 342.5 428 L 347 428.5 L 342.5 429 L 342.5 428 Z " /><path fill="rgb(144,146,237)" stroke="rgb(144,146,237)" stroke-width="1" opacity="0.9333333333333333" d="M 337.5 429 L 341 429.5 L 337.5 430 L 337.5 429 Z " /><path fill="rgb(144,146,237)" stroke="rgb(144,146,237)" stroke-width="1" opacity="0.9333333333333333" d="M 331.5 430 L 335 430.5 L 331.5 431 L 331.5 430 Z " /><path fill="rgb(144,146,237)" stroke="rgb(144,146,237)" stroke-width="1" opacity="0.9333333333333333" d="M 326.5 431 L 330 431.5 L 326.5 432 L 326.5 431 Z " /><path fill="rgb(144,146,237)" stroke="rgb(144,146,237)" stroke-width="1" opacity="0.9333333333333333" d="M 321.5 432 L 324 432.5 L 321.5 433 L 321.5 432 Z " /><path fill="rgb(144,146,237)" stroke="rgb(144,146,237)" stroke-width="1" opacity="0.9333333333333333" d="M 315.5 433 L 319 433.5 L 315.5 434 L 315.5 433 Z " /><path fill="rgb(144,146,237)" stroke="rgb(144,146,237)" stroke-width="1" opacity="0.9333333333333333" d="M 309.5 434 L 313 434.5 L 309.5 435 L 309.5 434 Z " /><path fill="rgb(144,146,237)" stroke="rgb(144,146,237)" stroke-width="1" opacity="0.9333333333333333" d="M 251.5 435 L 254 435.5 L 251.5 436 L 251.5 435 Z " /><path fill="rgb(144,146,237)" stroke="rgb(144,146,237)" stroke-width="1" opacity="0.9333333333333333" d="M 302.5 435 L 307 435.5 L 302.5 436 L 302.5 435 Z " /><path fill="rgb(144,146,237)" stroke="rgb(144,146,237)" stroke-width="1" opacity="0.9333333333333333" d="M 255.5 436 L 259 436.5 L 255.5 437 L 255.5 436 Z " /><path fill="rgb(144,146,237)" stroke="rgb(144,146,237)" stroke-width="1" opacity="0.9333333333333333" d="M 296.5 436 L 300 436.5 L 296.5 437 L 296.5 436 Z " /><path fill="rgb(144,146,237)" stroke="rgb(144,146,237)" stroke-width="1" opacity="0.9333333333333333" d="M 260.5 437 L 267 437.5 L 260.5 438 L 260.5 437 Z " /><path fill="rgb(144,146,237)" stroke="rgb(144,146,237)" stroke-width="1" opacity="0.9333333333333333" d="M 286.5 437 L 294 437.5 L 286.5 438 L 286.5 437 Z " /><path fill="rgb(144,146,237)" stroke="rgb(144,146,237)" stroke-width="1" opacity="0.9333333333333333" d="M 277.5 438 L 280 438.5 L 277.5 439 L 277.5 438 Z " /></svg>