<?xml version="1.0" encoding="UTF-8"?>
<svg id="Capa_2" data-name="Capa 2" xmlns="http://www.w3.org/2000/svg" viewBox="0 0 206 76.88">
  <defs>
    <style>
      .cls-1 {
        fill: #fff;
      }
    </style>
  </defs>
  <g id="Capa_1-2" data-name="Capa 1">
    <g>
      <g>
        <path class="cls-1" d="M148.66,30.44c0,2.78-.44,4.79-1.34,6.01-1.34,1.83-3.24,2.76-5.7,2.76s-4.33-.92-5.69-2.76c-.89-1.27-1.35-3.27-1.35-6.01V9.21h-4.85v22.56c0,3.37,1.05,6.14,3.16,8.32,2.35,2.43,5.26,3.64,8.72,3.64s6.36-1.22,8.73-3.64c2.11-2.18,3.17-4.95,3.17-8.32V9.21h-4.86v21.23Z"/>
        <g>
          <path class="cls-1" d="M10.82,32.09l5-10.87,4.76,10.87h-9.75ZM15.89,9.77L0,43.74h5.22l3.58-7.77h13.75l3.37,7.77h5.3L15.89,9.77Z"/>
          <polygon class="cls-1" points="61.98 39.2 52.53 39.2 52.53 9.77 47.69 9.77 47.69 43.73 61.98 43.73 61.98 39.2"/>
          <polygon class="cls-1" points="87.87 43.74 92.63 43.74 92.63 0 78.5 0 78.5 4.53 87.87 4.53 87.87 43.74"/>
          <polygon class="cls-1" points="102.06 4.53 111.34 4.53 111.34 0 97.3 0 97.3 43.74 102.06 43.74 102.06 4.53"/>
          <polygon class="cls-1" points="201.02 43.74 206 43.74 199.93 9.38 188.51 34.22 177.48 9.38 170.72 43.74 175.73 43.74 179.18 24.42 188.42 45.21 197.93 24.45 201.02 43.74"/>
        </g>
      </g>
      <g>
        <path class="cls-1" d="M174.96,74.14c-3.29,0-6.06-2.8-6.06-6.12s2.78-6.12,6.06-6.12,6.06,2.8,6.06,6.12-2.78,6.12-6.06,6.12M174.96,60.13c-4.26,0-7.87,3.61-7.87,7.89s3.6,7.89,7.87,7.89,7.86-3.61,7.86-7.89-3.6-7.89-7.86-7.89"/>
        <g>
          <path class="cls-1" d="M8.07,60.13c-4.45,0-8.07,3.55-8.07,7.91s3.68,7.87,8.05,7.87c1.85,0,3.63-.66,5.14-1.91l.16-.14v-2.74l-.8.97c-.96,1.17-2.91,2.05-4.54,2.05-1.49,0-3.12-.7-4.36-1.87-1.17-1.15-1.82-2.62-1.82-4.16,0-3.37,2.83-6.22,6.17-6.22,1.67,0,3.5.85,4.54,2.12l.8.98v-2.73l-.15-.13c-1.38-1.27-3.25-2-5.14-2"/>
          <path class="cls-1" d="M32.02,74.14c-3.35,0-6.17-2.8-6.17-6.12s2.83-6.12,6.17-6.12,6.17,2.8,6.17,6.12-2.83,6.12-6.17,6.12M32.02,60.13c-4.34,0-8.01,3.61-8.01,7.89s3.67,7.89,8.01,7.89,8.01-3.61,8.01-7.89-3.67-7.89-8.01-7.89"/>
          <path class="cls-1" d="M115.92,60.13c-4.37,0-7.92,3.55-7.92,7.91s3.62,7.87,7.9,7.87c1.82,0,3.56-.66,5.05-1.91l.16-.14v-2.74l-.79.97c-.95,1.17-2.87,2.04-4.46,2.04-1.47,0-3.07-.7-4.28-1.87-1.15-1.15-1.78-2.62-1.78-4.16,0-3.37,2.78-6.22,6.06-6.22,1.64,0,3.43.85,4.46,2.12l.79.98v-2.73l-.14-.13c-1.36-1.27-3.2-2-5.05-2"/>
          <polygon class="cls-1" points="53.71 60.32 51.88 60.32 51.88 75.72 57.42 75.72 57.42 73.95 53.71 73.95 53.71 60.32"/>
          <rect class="cls-1" x="154.4" y="60.32" width="1.8" height="15.4"/>
          <polygon class="cls-1" points="204.2 60.32 204.2 72.29 192.19 59.45 192.19 75.72 193.99 75.72 193.99 63.95 206 76.88 206 60.32 204.2 60.32"/>
          <polygon class="cls-1" points="89.27 75.72 96.99 75.72 96.99 73.95 91.07 73.95 91.07 68.22 96.84 68.22 96.84 66.45 91.07 66.45 91.07 62.09 96.99 62.09 96.99 60.32 89.27 60.32 89.27 75.72"/>
          <polygon class="cls-1" points="71.76 60.32 69.96 60.32 69.96 75.72 75.4 75.72 75.4 73.95 71.76 73.95 71.76 60.32"/>
          <polygon class="cls-1" points="132.67 62.09 136.38 62.09 136.38 75.72 138.18 75.72 138.18 62.09 141.88 62.09 141.88 60.32 132.67 60.32 132.67 62.09"/>
        </g>
      </g>
    </g>
  </g>
</svg>